<svg
        width="20"
        height="20"
        viewBox="0 0 20 20"
        fill="none"
        xmlns="http://www.w3.org/2000/svg"
>
    <path
            opacity="0.4"
            d="M10 20C15.523 20 20 15.523 20 10C20 4.477 15.523 0 10 0C4.477 0 0 4.477 0 10C0 15.523 4.477 20 10 20Z"
            fill="#919093"
    />
    <path
            d="M11 10C11 10.56 10.55 11 10 11C9.45 11 9 10.55 9 10C9 9.45 9.45 9 10 9C10.55 9 11 9.44 11 10ZM11 6C11 6.56 10.55 7 10 7C9.45 7 9 6.55 9 6C9 5.45 9.45 5 10 5C10.55 5 11 5.44 11 6ZM11 14C11 14.56 10.55 15 10 15C9.45 15 9 14.55 9 14C9 13.45 9.45 13 10 13C10.55 13 11 13.44 11 14Z"
            fill="#919093"
    />
</svg>