<svg width="20" height="20" viewBox="0 0 20 20" fill="none" xmlns="http://www.w3.org/2000/svg">
<g clip-path="url(#clip0_1_2)">
<path opacity="0.4" d="M10 20C15.523 20 20 15.523 20 10C20 4.477 15.523 0 10 0C4.477 0 0 4.477 0 10C0 15.523 4.477 20 10 20Z" fill="#787878"/>
<path d="M11.06 10.0001L13.36 7.70006C13.65 7.41006 13.65 6.93007 13.36 6.64007C13.2188 6.50058 13.0284 6.42236 12.83 6.42236C12.6316 6.42236 12.4411 6.50058 12.3 6.64007L9.99998 8.94006L7.69998 6.64007C7.55885 6.50058 7.36842 6.42236 7.16999 6.42236C6.97155 6.42236 6.78112 6.50058 6.63999 6.64007C6.34999 6.93007 6.34999 7.41006 6.63999 7.70006L8.93998 10.0001L6.63999 12.3001C6.34999 12.5901 6.34999 13.0701 6.63999 13.3601C6.78999 13.5101 6.97999 13.5801 7.16999 13.5801C7.35999 13.5801 7.54998 13.5101 7.69998 13.3601L9.99998 11.0601L12.3 13.3601C12.45 13.5101 12.64 13.5801 12.83 13.5801C13.02 13.5801 13.21 13.5101 13.36 13.3601C13.65 13.0701 13.65 12.5901 13.36 12.3001L11.06 10.0001Z" fill="#787878"/>
</g>
<defs>
<clipPath id="clip0_1_2">
<rect width="20" height="20" fill="white"/>
</clipPath>
</defs>
</svg>
