<svg width="32" height="32" viewBox="0 0 32 32" fill="none" xmlns="http://www.w3.org/2000/svg">
<mask id="mask0_125_3" style="mask-type:luminance" maskUnits="userSpaceOnUse" x="0" y="0" width="32" height="32">
<path d="M32 0H0V32H32V0Z" fill="white"/>
</mask>
<g mask="url(#mask0_125_3)">
<path d="M16 32C24.8366 32 32 24.8366 32 16C32 7.16344 24.8366 0 16 0C7.16344 0 0 7.16344 0 16C0 24.8366 7.16344 32 16 32Z" fill="#C9CACA"/>
<path d="M6 6.5L6.5 6L16 15.5L25.5 6L26 6.5L16.5 16L26 25.5L25.5 26L16 16.5L6.5 26L6 25.5L15.5 16L6 6.5Z" fill="white"/>
</g>
</svg>
