<svg width="20" height="20" viewBox="0 0 20 20" fill="none" xmlns="http://www.w3.org/2000/svg">
<g clip-path="url(#clip0_145_10)">
<mask id="mask0_145_10" style="mask-type:luminance" maskUnits="userSpaceOnUse" x="0" y="0" width="20" height="20">
<path d="M20 0H0V20H20V0Z" fill="white"/>
</mask>
<g mask="url(#mask0_145_10)">
<path opacity="0.4" d="M10 20C15.523 20 20 15.523 20 10C20 4.477 15.523 0 10 0C4.477 0 0 4.477 0 10C0 15.523 4.477 20 10 20Z" fill="#919093"/>
<path d="M14 9.25H10.75V6C10.75 5.59 10.41 5.25 10 5.25C9.59 5.25 9.25 5.59 9.25 6V9.25H6C5.59 9.25 5.25 9.59 5.25 10C5.25 10.41 5.59 10.75 6 10.75H9.25V14C9.25 14.41 9.59 14.75 10 14.75C10.41 14.75 10.75 14.41 10.75 14V10.75H14C14.41 10.75 14.75 10.41 14.75 10C14.75 9.59 14.41 9.25 14 9.25Z" fill="#919093"/>
</g>
</g>
<defs>
<clipPath id="clip0_145_10">
<rect width="20" height="20" fill="white"/>
</clipPath>
</defs>
</svg>
