<svg width="32" height="32" viewBox="0 0 32 32" fill="none" xmlns="http://www.w3.org/2000/svg">
<circle cx="16" cy="16" r="16" fill="#ECEEEE"/>
<path fill-rule="evenodd" clip-rule="evenodd" d="M14.1395 22.9302C16.6055 22.9302 18.6046 20.9311 18.6046 18.4651C18.6046 15.9991 16.6055 14 14.1395 14C11.6735 14 9.67441 15.9991 9.67441 18.4651C9.67441 20.9311 11.6735 22.9302 14.1395 22.9302ZM8 26.7923C8 23.052 8.00005 22.2605 10.9402 22.093C11.7514 22.926 12.885 23.4434 14.1396 23.4434C15.3854 23.4434 16.5121 22.9332 17.322 22.1103C20 22.3118 20 23.1667 20 26.7923C20 28.0481 16.3939 28.0481 14 28.0481H14C11.6061 28.0481 8 28.0481 8 26.7923Z" fill="#333333"/>
<path fill-rule="evenodd" clip-rule="evenodd" d="M26.7844 14.4651C26.7844 16.9311 24.7853 18.9302 22.3192 18.9302C19.8532 18.9302 17.8541 16.9311 17.8541 14.4651C17.8541 11.9991 19.8532 10 22.3192 10C24.7853 10 26.7844 11.9991 26.7844 14.4651ZM22.1797 24.0481C21.5389 24.0481 20.8111 24.0481 20.089 24.024C19.8829 22.5129 19.2083 22.13 17 22.0329C18.0811 21.218 18.78 19.9232 18.78 18.4651C18.78 18.3481 18.7755 18.2322 18.7666 18.1175C18.8794 18.1081 18.9971 18.1 19.1199 18.093C19.9311 18.926 21.0647 19.4434 22.3193 19.4434C23.5651 19.4434 24.6918 18.9332 25.5017 18.1103C28.1797 18.3118 28.1797 19.1667 28.1797 22.7923C28.1797 24.0481 24.5736 24.0481 22.1797 24.0481H22.1797Z" fill="#333333"/>
<line x1="10.5" y1="5" x2="10.5" y2="14" stroke="#333333"/>
<line x1="6" y1="9.5" x2="15" y2="9.5" stroke="#333333"/>
</svg>
